<svg xmlns="http://www.w3.org/2000/svg" viewBox="0 0 400 400"><defs><style>.cls-1{isolation:isolate;}.cls-2{fill:#c6ccc2;}.cls-2,.cls-3,.cls-5,.cls-6,.cls-7{stroke:#486284;stroke-miterlimit:10;}.cls-2,.cls-3,.cls-7{stroke-width:4.09px;}.cls-3{fill:#9f8170;}.cls-4{fill:#846b5e;mix-blend-mode:darken;}.cls-5,.cls-6{fill:#876e61;}.cls-5{stroke-width:3.79px;}.cls-6{stroke-width:4.92px;}.cls-7{fill:#f3915b;}</style></defs><title>Porte</title><g class="cls-1"><g id="Calque_1" data-name="Calque 1"><circle class="cls-2" cx="200" cy="262.5" r="116.5"/><rect class="cls-3" x="84.93" y="168.93" width="22.11" height="47.5" rx="8.87" ry="8.87"/><rect class="cls-3" x="292.95" y="168.93" width="22.11" height="47.5" rx="8.87" ry="8.87"/><path class="cls-4" d="M301.82,168.93A8.89,8.89,0,0,0,293,177.8v29.77a8.8,8.8,0,0,0,1.59,5,8.76,8.76,0,0,0,1.55.14h4.38a8.89,8.89,0,0,0,8.86-8.87V174.11a8.77,8.77,0,0,0-1.58-5,8.76,8.76,0,0,0-1.55-.14Z"/><path class="cls-3" d="M304,50.18v266a116.57,116.57,0,0,1-206.38-.78V50.18a4.93,4.93,0,0,1,4.91-4.91H299.1A4.93,4.93,0,0,1,304,50.18Z"/><rect class="cls-5" x="114.21" y="68.61" width="80.26" height="138.41" rx="4.93" ry="4.93"/><rect class="cls-5" x="207.17" y="68.61" width="80.26" height="138.41" rx="4.93" ry="4.93"/><path class="cls-6" d="M285.38,252.73V342a117.82,117.82,0,0,1-15.77,13.82H132.44a116.47,116.47,0,0,1-18.23-16.49V252.73a6.42,6.42,0,0,1,6.41-6.4H279A6.42,6.42,0,0,1,285.38,252.73Z"/><rect class="cls-3" x="141.24" y="136.94" width="26.21" height="42.28" rx="13.1" ry="13.1"/><rect class="cls-3" x="234.19" y="136.94" width="26.21" height="42.28" rx="13.1" ry="13.1"/><rect class="cls-7" x="265.93" y="216.43" width="21.29" height="21.29" rx="10.65" ry="10.65"/><path class="cls-4" d="M157,369.58h88a116.88,116.88,0,0,1-88,0Z"/><path class="cls-4" d="M304,50.18v266a116.88,116.88,0,0,1-6.55,10.87V45.27h1.64A4.93,4.93,0,0,1,304,50.18Z"/></g></g></svg>