<svg xmlns="http://www.w3.org/2000/svg" viewBox="0 0 400 400"><defs><style>.cls-1{isolation:isolate;}.cls-2{fill:#c6ccc2;stroke-width:4.06px;}.cls-2,.cls-3{stroke:#486284;}.cls-2,.cls-9{stroke-miterlimit:10;}.cls-3,.cls-5{fill:#83d6d0;}.cls-10,.cls-3,.cls-7,.cls-8{stroke-linecap:round;stroke-linejoin:round;}.cls-3{stroke-width:6.3px;}.cls-4{fill:#5ba8a1;}.cls-6{fill:#486284;}.cls-7{fill:#aad1cd;stroke-width:5.27px;}.cls-10,.cls-7,.cls-8,.cls-9{stroke:#3d6189;}.cls-8{fill:#f5e9e6;stroke-width:6.79px;}.cls-9{fill:#40567c;stroke-width:0.58px;}.cls-10{fill:none;stroke-width:5.83px;}.cls-11{mix-blend-mode:darken;}.cls-12{fill:#fdffff;}.cls-13{fill:#f5f7f7;}</style></defs><title>ringabell</title><g class="cls-1"><g id="Calque_1" data-name="Calque 1"><path class="cls-2" d="M315.46,261.11q0,4.42-.33,8.78a115.46,115.46,0,0,1-201.46,67.89,116.08,116.08,0,0,1-10.26-13.39,114.75,114.75,0,0,1-17.57-45.91c-.43-2.83-.75-5.7-1-8.59s-.33-5.83-.33-8.78a115.07,115.07,0,0,1,11.65-50.62q2.07-4.23,4.47-8.26a115.45,115.45,0,0,1,214.8,58.88Z"/><rect class="cls-3" x="181.2" y="313.16" width="43.54" height="43.54" rx="21.77" ry="21.77"/><path class="cls-4" d="M221.69,334.36h0A18.78,18.78,0,0,0,203,315.64h0a18.77,18.77,0,0,0-18.72,18.72h0a18.59,18.59,0,0,0,4.19,11.76H217.5A18.65,18.65,0,0,0,221.69,334.36Z"/><path class="cls-5" d="M116.88,338.08a3.16,3.16,0,0,1-2.35-1.06,114.17,114.17,0,0,1-10.16-13.26A112.94,112.94,0,0,1,87,278.3c-.42-2.8-.75-5.66-1-8.5a3.13,3.13,0,0,1,.88-2.43,41.75,41.75,0,0,1,11.6-8.48,79,79,0,0,1-1.58-15.71V180.56A103.35,103.35,0,0,1,127.48,107a104.64,104.64,0,0,1,59.14-29.57h0l.82-.11A104.66,104.66,0,0,1,201,76.47c.93,0,1.85,0,2.78,0l1.39,0,1.16,0,1.28.07c1.13.07,2.25.16,3.38.27l1,.11c.46,0,.92.09,1.36.15l.85.1,1,.13.94.14,1.28.2,1.31.21.2,0,1.31.24,1.15.23,1.28.27h.06l1.31.29,1.22.28,1.31.33.11,0c.36.09.73.18,1.09.29l1.43.39,1.27.37,1.27.38,1.28.41c1.63.53,3.31,1.12,5,1.77l1.22.47c.42.17.83.33,1.24.51l1.2.5c.85.36,1.67.73,2.49,1.1l1.13.53,1.22.59c.38.18,1.17.58,1.2.6l1.1.56,1.1.58,1.34.74,1,.55,1.16.67.92.54.18.11c.76.46,1.5.92,2.23,1.38l1.08.7,1.1.73,1.08.74,1.22.86.88.63.06,0,.66.49,0,0,.69.51.68.51.95.74.25.2,1,.78.81.67s.43.35.44.37c.22.17.43.35.64.53l.65.56.59.51.71.63.24.22.72.65h0c.32.29.64.58.95.88l.73.69,1.11,1.07.94,1a1.14,1.14,0,0,1,.11.11q.56.56,1.08,1.11l.6.63.51.55,1,1.06c.9,1,1.82,2,2.73,3.14l.79,1c.26.31.52.64.79,1l.77,1c1.06,1.36,2.1,2.77,3.08,4.18.12.17.58.83.62.9.21.29.41.59.6.88s.56.84.84,1.27l.57.88.34.55c.44.71.88,1.42,1.3,2.13l.53.9c.29.5.59,1,.88,1.56l.48.87c.24.43.49.9.73,1.37s.46.89.7,1.34c.73,1.45,1.36,2.77,1.94,4.06l.55,1.21c.2.46.41.95.61,1.43s.31.74.46,1.12l.31.76.5,1.29c.55,1.45,1.06,2.88,1.52,4.26l0,.1c.09.29.19.58.28.87.37,1.14.72,2.32,1.05,3.46.12.46.25.91.37,1.38s.25.93.37,1.41l.06.22c.22.88.43,1.77.63,2.66,0,.12.07.29.1.47a1.06,1.06,0,0,1,0,.19c.08.35.17.75.25,1.16s.18.9.26,1.35c0,0,.1.54.11.55.07.42.15.82.22,1.23s.17,1,.25,1.55.16,1,.23,1.57.15,1,.21,1.59l.18,1.43c0,.18,0,.41.06.64.14,1.31.26,2.73.35,4.15,0,.29.08,1.29.09,1.5s0,.47,0,.75c0,1,.07,2,.08,3,0,.45,0,.91,0,1.38v62.62c0,.52,0,1,0,1.55s0,1-.05,1.47v0c0,.47,0,.95-.06,1.42,0,.07,0,.14,0,.2,0,.43-.05.86-.08,1.29,0,0,0,.12,0,.14-.06.76-.13,1.51-.21,2.26s-.18,1.56-.29,2.35-.22,1.55-.36,2.33c-.2,1.22-.43,2.43-.69,3.6l.78.44.71.42.54.34.51.32,1.21.83c.63.44,1.2.87,1.76,1.31l.54.42,1.12.94.54.49.51.46c.56.52,1.08,1,1.6,1.57a3.13,3.13,0,0,1,.88,2.43A113.12,113.12,0,0,1,285.47,337a3.16,3.16,0,0,1-2.35,1.06Z"/><path class="cls-6" d="M201,79.62c.9,0,1.8,0,2.69,0l1.34,0,1.14.06c.41,0,.82,0,1.23.07,1.1.07,2.19.15,3.28.26l1,.1,1.3.15.92.11.85.11.68.1.33,0,1.14.17,1.29.22.17,0h0l.91.16.37.07,1.12.22,1.25.26h0l1.25.28,1.27.29,1.2.3.08,0,1.06.28,1.41.39,1.25.36,1.23.37,1.22.39c1.64.54,3.25,1.11,4.85,1.72l1.19.46,1.18.48,1.18.5c.81.35,1.61.7,2.41,1.07l1.08.5,1.12.54.06,0,1.09.55h0c.38.18.75.38,1.12.57l1.08.57,1.29.71,1,.54,1.09.64,1.09.64L255,95.4l1.07.69,1.05.7,1,.71,1,.73.07,0h0l.94.68,0,0,.71.52h0l.6.44.69.53h0l.51.39.13.1.21.17.11.08,0,0,.9.72,1,.82.06,0,.29.24.12.1.56.47.08.07.15.12.45.39.16.14.39.34.67.59.24.22,0,0,.67.61h0c.31.27.61.56.92.85l.74.69c.36.34.71.69,1.06,1l.91.9.13.14c.35.35.7.7,1,1.06l.43.46.11.11,0,0h0c.16.17.32.33.47.5.33.35.65.7,1,1.06.9,1,1.79,2,2.65,3l.77.94.76.94c.25.31.5.63.74.95q1.56,2,3,4.06l.49.72a.3.3,0,0,1,.07.1c.22.3.42.61.62.91s.55.82.82,1.24l.53.82c.11.19.23.37.35.56.43.69.85,1.38,1.26,2.08l.5.85c.3.5.58,1,.86,1.51.16.27.31.55.45.82.25.45.49.9.73,1.35l.7,1.36c.64,1.28,1.27,2.57,1.86,3.88.18.39.35.79.53,1.18s.4.92.59,1.38.3.71.44,1.08l.26.63c.07.19.15.37.22.56s.21.55.32.82c.52,1.36,1,2.73,1.47,4.12l.3.91q.54,1.68,1,3.39c.13.44.25.87.37,1.32s.26,1,.38,1.47h0c.23.89.44,1.79.64,2.7,0,.16.07.31.11.47a.6.6,0,0,1,0,.12c.09.39.17.78.25,1.17s.17.88.26,1.31c0,.15,0,.29.08.44s0,.09,0,.13l.21,1.14c.09.5.17,1,.25,1.52s.15,1,.22,1.52.14,1,.21,1.54l0,.18c.05.36.08.72.13,1.08,0,0,0,.07,0,.11l.06.61c.15,1.35.26,2.7.35,4.06,0,.29,0,.58,0,.87l0,.56,0,.72c0,1,.07,2,.08,3,0,.44,0,.89,0,1.34v62.62c0,.49,0,1,0,1.48s0,1-.05,1.45v0c0,.47,0,.93-.06,1.39,0,0,0,.07,0,.1q0,.66-.09,1.32v.1c-.06.73-.13,1.45-.21,2.17s-.16,1.5-.27,2.25-.22,1.49-.34,2.24c-.25,1.48-.54,2.95-.88,4.4-.08.36-.17.72-.26,1.08,0,.11,0,.21-.07.32l.46.22.59.31c.59.3,1.18.62,1.75,1l.57.34.57.35.48.31.63.41.54.38c.54.38,1.07.78,1.6,1.19l.51.41,1,.85.49.44.49.44c.5.48,1,1,1.48,1.45a110.64,110.64,0,0,1-27.73,65.36H116.88a111.06,111.06,0,0,1-26.79-57.09c-.41-2.72-.73-5.48-.94-8.27a39,39,0,0,1,13-8.86,75.55,75.55,0,0,1-2-17.52V180.56a101.31,101.31,0,0,1,87-100h0l.78-.11A102,102,0,0,1,201,79.62m0-6.3a108.17,108.17,0,0,0-13.94.91l-.83.11h0a107.77,107.77,0,0,0-60.94,30.47,106.47,106.47,0,0,0-31.49,75.74v62.62a82.22,82.22,0,0,0,1.2,14,44.8,44.8,0,0,0-10.34,8A6.3,6.3,0,0,0,82.87,270c.22,2.91.55,5.85,1,8.73a116.07,116.07,0,0,0,17.89,46.72,118.1,118.1,0,0,0,10.43,13.62,6.3,6.3,0,0,0,4.71,2.12H283.12a6.3,6.3,0,0,0,4.71-2.12A116.24,116.24,0,0,0,317.13,270a6.25,6.25,0,0,0-1.76-4.85c-.52-.55-1.08-1.09-1.69-1.66l-.57-.53-.61-.54c-.36-.31-.75-.64-1.14-.95l-.06-.06-.16-.12-.43-.34c-.55-.43-1.16-.89-1.8-1.34l-.1-.07-.16-.11-.42-.29-.67-.44c-.16-.11-.31-.21-.47-.3l-.09-.06-.18-.11q.15-.76.27-1.53c.13-.75.26-1.55.37-2.42s.21-1.58.3-2.45.15-1.53.22-2.31a.31.31,0,0,1,0-.1v-.07l.09-1.29c0-.08,0-.18,0-.28,0-.49.06-1,.07-1.46v-.06c0-.51,0-1,0-1.53s0-1,0-1.58V180.56c0-.49,0-1,0-1.45,0-1,0-2.06-.08-3.1,0-.27,0-.55,0-.82l0-.59c0-.32,0-.62-.06-.92-.09-1.43-.21-2.88-.36-4.27,0-.23,0-.46-.07-.69v-.15l0-.32c0-.28-.07-.55-.1-.83l0-.15c-.07-.54-.14-1.09-.22-1.65s-.15-1.06-.24-1.61-.17-1.07-.26-1.6-.15-.82-.22-1.23l0-.1-.09-.48c-.09-.46-.18-.93-.28-1.41s-.16-.79-.25-1.2c0-.06,0-.12,0-.18l-.12-.53c-.21-1-.42-1.82-.62-2.64,0-.1-.05-.2-.08-.3-.12-.49-.25-1-.38-1.44s-.25-.94-.38-1.41c-.33-1.16-.69-2.36-1.09-3.57-.09-.3-.19-.59-.28-.89l0-.11c-.47-1.41-1-2.88-1.56-4.38l-.08-.2c-.08-.21-.17-.43-.26-.65s-.12-.32-.19-.49l0-.11,0-.06-.08-.18c-.06-.15-.12-.31-.19-.47-.15-.38-.31-.76-.47-1.14s-.41-1-.63-1.48-.37-.82-.57-1.25c-.58-1.29-1.24-2.68-2-4.1-.25-.49-.49-1-.74-1.44s-.5-.94-.76-1.41c-.16-.3-.33-.6-.5-.9-.3-.55-.6-1.09-.92-1.62-.14-.25-.32-.55-.49-.84l0-.06c-.44-.73-.88-1.47-1.34-2.19l-.36-.57c-.19-.32-.39-.62-.59-.93s-.57-.87-.87-1.31c-.18-.27-.37-.56-.58-.85a2.75,2.75,0,0,0-.19-.28l-.05-.08-.43-.62c-1-1.45-2.08-2.9-3.18-4.3-.24-.32-.52-.67-.79-1l-.82-1-.8-1c-.93-1.11-1.88-2.21-2.81-3.23l-1-1.1-.48-.51-.16-.17,0,0-.43-.46-1.15-1.18-.07-.06v0c-.32-.33-.65-.66-1-1s-.75-.75-1.13-1.11-.53-.5-.79-.73-.63-.6-.95-.89l-.76-.69,0,0h0l-.18-.16-.78-.69-.19-.17-.16-.14-.07,0-.15-.13-.48-.42-.06,0-.08-.07,0,0-.67-.57-.1-.08-.1-.08-.17-.14-.11-.09h0l-.76-.62-.25-.21-.17-.14c-.24-.18-.47-.37-.7-.56l-.26-.2-.14-.11L266.7,96l-.08-.07-.19-.14-.33-.26-.18-.13-.55-.42-.71-.53h0c-.22-.17-.44-.34-.67-.5l-.06,0h0l-.88-.63-.2-.14,0,0c-.34-.25-.69-.49-1-.73l-1.15-.79c-.34-.23-.71-.48-1.09-.72l-.32-.21-.81-.52c-.75-.48-1.51-1-2.28-1.42l-.2-.12-1-.58-1.12-.65-1.07-.6c-.45-.25-.9-.5-1.36-.74l-1.15-.61c-.36-.19-.72-.38-1.09-.56l-.12-.06-1.12-.56h0l-.12-.06L247.4,84l-.82-.39c-.35-.17-.74-.36-1.13-.53-.84-.39-1.69-.76-2.53-1.12l-1.26-.53c-.43-.18-.85-.36-1.28-.52l-.29-.12-1-.38c-1.73-.66-3.46-1.27-5.15-1.82l-1.28-.41h-.05l-.4-.12-.89-.28L230,77.35l-1.48-.41-1.05-.28-.19,0L226,76.29,224.7,76l-1.33-.29-.08,0c-.44-.09-.88-.19-1.32-.27l-1.16-.23-.27,0-.11,0-1-.18-.16,0-.11,0-1.31-.22-1.24-.19-.36,0-.69-.1-.91-.12-1-.12-1.36-.16-1.09-.11c-1.1-.1-2.28-.2-3.48-.27l-1.33-.08-1.2,0-1.41,0c-.95,0-1.91,0-2.86,0Z"/><rect class="cls-7" x="153.73" y="181.56" width="18.32" height="25.79" rx="9.16" ry="9.16"/><path class="cls-8" d="M142.19,167.31a66.38,66.38,0,0,1,38.68,0"/><rect class="cls-7" x="229.31" y="181.56" width="18.32" height="25.79" rx="9.16" ry="9.16"/><path class="cls-8" d="M219.13,167.31a66.38,66.38,0,0,1,38.68,0"/><ellipse class="cls-9" cx="203.11" cy="239.48" rx="16.92" ry="2.33"/><path class="cls-10" d="M155.71,267.42c5.08,11.57,24.37,20.18,47.4,20.18s42.55-8.71,47.49-20.39"/><g class="cls-11"><path class="cls-4" d="M287.08,167.66v62.63a73.69,73.69,0,0,1-2.1,18.12,39,39,0,0,1,14.76,12.77,75.31,75.31,0,0,0,2.18-18V180.56a101,101,0,0,0-42.65-82.28A100.53,100.53,0,0,1,287.08,167.66Z"/><path class="cls-4" d="M310.85,269.56a110.64,110.64,0,0,1-27.73,65.36H116.88A110.49,110.49,0,0,1,107,322H268.27a38.54,38.54,0,0,0,31.86-60.31l.59.31c.59.3,1.18.62,1.75,1l.57.34.57.35.48.31.63.41.54.38c.54.38,1.07.78,1.6,1.19l.51.41,1,.85.49.44.49.44C309.87,268.59,310.37,269.07,310.85,269.56Z"/></g><path class="cls-12" d="M274.38,111.42a100.65,100.65,0,0,0-31.06-20.14,98.45,98.45,0,0,0-28.5-7q-4.42-.41-8.95-.4a98.71,98.71,0,0,0-12.82.83c-49,6.39-87.25,48.92-87.25,100V247.3a75.92,75.92,0,0,0,2,17.5,38.75,38.75,0,0,0-16.19,12.83c-.41-2.73-.72-5.48-.93-8.27a38.58,38.58,0,0,1,12.85-8.85,76.47,76.47,0,0,1-2-17.5V180.45a101,101,0,0,1,29.39-71.21A99.77,99.77,0,0,1,187.8,80.59l.78-.11a100.17,100.17,0,0,1,13-.86c.9,0,1.79,0,2.67,0l1.33,0,1.13.06c.41,0,.81,0,1.22.07,1.09.07,2.17.15,3.26.26l1,.1c.43,0,.86.09,1.29.15l.92.11.83.11.68.1.33,0,1.13.17,1.28.22.17,0,.91.16.37.07,1.1.22,1.24.26h0l1.25.27,1.25.3c.4.09.8.2,1.19.3l.08,0,1.05.28,1.41.38,1.23.36,1.22.38,1.21.39q2.43.8,4.8,1.71l1.19.47q.58.23,1.17.48l1.17.49,2.39,1.07,1.07.5,1.11.54.06,0,1.08.54,0,0c.38.18.74.37,1.11.57l1.07.57c.43.23.86.46,1.28.7l1,.55,1.09.63,1.07.65,2.14,1.33,1.05.69,1,.7,1,.71,1,.73.07.05h0l.93.68.72.54,1.29,1h0l.26.21.54.43.15.11,0,0c.66.52,1.31,1,1.95,1.58l.29.25,1.5,1.28.39.34.23.21.43.38.26.24.67.61c.31.28.61.57.91.86l.91.86.9.88.88.89.14.14.73.76.83.87Z"/><path class="cls-5" d="M203,90.69a24.92,24.92,0,1,1,24.92-24.92A24.95,24.95,0,0,1,203,90.69Z"/><path class="cls-6" d="M203,44a21.84,21.84,0,0,1,21.77,21.77h0a21.77,21.77,0,0,1-43.54,0h0A21.84,21.84,0,0,1,203,44m0-6.3A28.07,28.07,0,1,0,231,65.77,28.1,28.1,0,0,0,203,37.7Z"/><path class="cls-13" d="M184.72,69.29h0a21.83,21.83,0,0,1,21.77-21.77h0A21.65,21.65,0,0,1,220,52.26,21.76,21.76,0,0,0,203,44h0A21.84,21.84,0,0,0,181.2,65.77h0a21.73,21.73,0,0,0,8.26,17A21.59,21.59,0,0,1,184.72,69.29Z"/></g></g></svg>