<svg xmlns="http://www.w3.org/2000/svg" viewBox="0 0 400 400"><defs><style>.cls-1{isolation:isolate;}.cls-2{fill:#c6ccc2;stroke-miterlimit:10;}.cls-2,.cls-5,.cls-6,.cls-7{stroke:#486284;}.cls-2,.cls-5,.cls-6,.cls-7,.cls-9{stroke-width:4.02px;}.cls-3{fill:#83d6d0;}.cls-4{fill:#486284;}.cls-5,.cls-9{fill:#f5e9e6;}.cls-10,.cls-11,.cls-5,.cls-6,.cls-7,.cls-8,.cls-9{stroke-linecap:round;stroke-linejoin:round;}.cls-6{fill:#6dbfb7;}.cls-10,.cls-7{fill:none;}.cls-8{fill:#aad1cd;}.cls-10,.cls-11,.cls-8,.cls-9{stroke:#3d6189;}.cls-10,.cls-11,.cls-8{stroke-width:3.13px;}.cls-11,.cls-14{fill:#c42c51;}.cls-12{mix-blend-mode:multiply;}.cls-13{fill:#fff;}.cls-14{mix-blend-mode:overlay;}</style></defs><title>SmartphoneOk</title><g class="cls-1"><g id="Calque_1" data-name="Calque 1"><path class="cls-2" d="M314.5,261.7a114.18,114.18,0,0,1-36.62,83.94q-2,1.83-4,3.57A114.39,114.39,0,0,1,124.74,348c-.75-.65-1.49-1.31-2.21-2a114.48,114.48,0,0,1,0-168.61c.72-.68,1.46-1.34,2.21-2a112.35,112.35,0,0,1,8.85-7,114.52,114.52,0,0,1,133.22.29q3.63,2.61,7,5.49,2.06,1.74,4,3.57A114.16,114.16,0,0,1,314.5,261.7Z"/><path class="cls-3" d="M200,375a116.09,116.09,0,0,1-76.58-28.71c-.76-.66-1.51-1.33-2.26-2a2,2,0,0,1-.65-1.48V106.91a23.31,23.31,0,0,1,23.3-23.29H256.59c.41,0,.81,0,1.21,0l.34,0,1.07.09.62.08.51.08c.07,0,.23,0,.4.07l.33.05.68.15.38.09.29.07.56.16a23.07,23.07,0,0,1,3,1.08l.36.16c.43.2.82.4,1.2.6a23.43,23.43,0,0,1,3.17,2l.38.3.18.14.37.31.1.08.45.4.33.31s.57.54.65.63.31.32.48.5l.3.33.25.29.06.06c.11.12.21.24.31.37.25.3.5.62.73.94s.26.35.39.54l.38.55.34.53c.12.19.25.42.38.64s.37.66.53,1,.26.5.37.75c0,0,.17.36.22.49a20.33,20.33,0,0,1,.92,2.45,4.44,4.44,0,0,1,.15.52l0,.06c.05.18.1.35.14.52s.09.32.13.5l.11.49c0,.22.08.41.11.59s.08.43.11.65c0,0,.06.42.06.43l.05.38c0,.18.08.69.08.76l0,.41c0,.12,0,.29,0,.45s0,.37,0,.57,0,.39,0,.59V342.42a2,2,0,0,1-.64,1.47c-1.28,1.19-2.66,2.41-4.1,3.63a115.28,115.28,0,0,1-44.42,23.38A116.67,116.67,0,0,1,200,375Z"/><path class="cls-4" d="M256.59,85.63c.37,0,.74,0,1.1,0h.24q.52,0,1.05.09l.54.07.45.07.34,0,.41.08.56.12a2.34,2.34,0,0,1,.38.09l.25.06.51.14a21.54,21.54,0,0,1,2.76,1l.34.16c.37.17.73.35,1.09.54A19.68,19.68,0,0,1,269.49,90l.38.29a.73.73,0,0,1,.09.08c.13.1.26.2.39.32l.08.06.45.4,0,0,.13.12.12.12.41.39.18.18c.15.14.28.28.42.43l.3.33.22.25s0,0,0,0l.31.36c.24.29.47.58.68.87s.24.33.35.49l.34.5.32.49c.12.2.24.4.35.6s.34.6.5.9l.33.67c.06.15.13.3.2.45a21.64,21.64,0,0,1,.84,2.25c.05.15.09.29.13.44l0,.09.12.47c0,.15.08.29.11.44l.12.49c0,.18.06.35.1.53s.07.41.1.62l0,.25c0,.15,0,.29.05.44a5.51,5.51,0,0,1,.06.57.78.78,0,0,1,0,.14c0,.12,0,.24,0,.37s0,.25,0,.37,0,.37,0,.55,0,.36,0,.55V342.42q-2,1.83-4,3.57a114.39,114.39,0,0,1-149.11-1.22c-.75-.65-1.49-1.31-2.21-2V106.91a21.28,21.28,0,0,1,21.28-21.28H256.59m0-4H143.81a25.34,25.34,0,0,0-25.31,25.31V342.79a4,4,0,0,0,1.3,3c.77.72,1.55,1.41,2.31,2.06a118.69,118.69,0,0,0,109.15,25,117.31,117.31,0,0,0,45.19-23.78c1.46-1.23,2.86-2.47,4.17-3.69a4,4,0,0,0,1.28-2.95V106.91c0-.21,0-.42,0-.63s0-.42,0-.62l0-.54,0-.32a.31.31,0,0,1,0-.1l0-.21c0-.2,0-.4-.06-.61s0-.34-.07-.51l0-.15,0-.12v0c-.05-.28-.08-.51-.13-.74s-.07-.41-.12-.61v0c0-.18-.07-.36-.12-.54s-.09-.37-.14-.55-.07-.3-.12-.45l-.06-.24c-.05-.15-.09-.3-.14-.44a23.56,23.56,0,0,0-1-2.72l-.18-.4-.05-.1c-.13-.28-.26-.55-.4-.81s-.38-.72-.58-1.07-.29-.5-.43-.73-.25-.39-.38-.58-.25-.39-.39-.59l-.44-.6c-.24-.32-.5-.67-.78-1-.1-.13-.21-.26-.34-.4l-.05-.07h0c-.1-.12-.21-.23-.32-.35s-.19-.21-.29-.32-.36-.4-.56-.59l-.23-.22c-.14-.14-.28-.28-.43-.41l-.05,0,0,0-.22-.21-.07-.06c-.16-.15-.33-.3-.49-.43l-.09-.08q-.24-.21-.48-.39l-.13-.11-.44-.34a23.35,23.35,0,0,0-3.41-2.19c-.42-.23-.84-.43-1.26-.63l-.07,0-.15-.06-.2-.09a26.75,26.75,0,0,0-3.3-1.2l-.59-.15-.33-.09-.43-.1-.43-.09-.17,0-.15,0-.27,0-.09,0-.46-.08-.51-.08-.63-.08c-.41,0-.8-.08-1.23-.1l-.33,0c-.4,0-.84,0-1.31,0Z"/><rect class="cls-5" x="133.59" y="110.58" width="133.21" height="229.8"/><circle class="cls-6" cx="200.2" cy="357.09" r="8.25"/><line class="cls-7" x1="183.7" y1="99.71" x2="216.7" y2="99.71"/><rect class="cls-8" x="159.55" y="170.95" width="10.87" height="15.29" rx="5.43" ry="5.43"/><path class="cls-9" d="M152.71,162.5a39.32,39.32,0,0,1,22.94,0"/><rect class="cls-8" x="230.79" y="170.95" width="10.87" height="15.29" rx="5.43" ry="5.43"/><path class="cls-9" d="M224.75,162.5a39.32,39.32,0,0,1,22.94,0"/><path class="cls-10" d="M187.52,210.79c0-4.89,5.68-8.85,12.68-8.85s12.68,4,12.68,8.85-5.68,8.86-12.68,8.86"/><path class="cls-10" d="M218.11,251v3a17.84,17.84,0,0,1-4.94,12.32l-.32.33a17.91,17.91,0,0,1-30.56-12.65v-3Z"/><path class="cls-11" d="M213.17,266.38l-.32.33a17.84,17.84,0,0,1-25.62-.33c2.88-2.46,7.62-4.07,13-4.07S210.29,263.92,213.17,266.38Z"/><g class="cls-12"><path class="cls-3" d="M169.8,369h60.4a115.45,115.45,0,0,1-60.4,0Z"/></g><g class="cls-12"><path class="cls-3" d="M277.88,106.91V342.42q-2,1.83-4,3.57V102.88a21.14,21.14,0,0,0-3.45-11.6c-.28-.44-.58-.87-.9-1.28,0,0,0,0,0,0l.38.29a.73.73,0,0,1,.09.08l.36.29,0,0,.08.06.31.28.14.12,0,0,.13.12.13.12.4.39.18.18c.05,0,.11.1.16.16l.26.27.3.33.22.25s0,0,0,0l.31.36c.24.29.47.58.68.87s.24.33.35.49l.34.5.32.49c.12.2.24.4.35.6s.34.6.5.9l.33.67c.06.15.13.3.2.45a21.64,21.64,0,0,1,.84,2.25c.05.15.09.29.13.44l0,.09.12.47c0,.15.08.29.11.44l.12.49c0,.18.06.35.1.53s.07.41.1.62l0,.25c0,.15,0,.29.05.44a5.51,5.51,0,0,1,.06.57.78.78,0,0,1,0,.14c0,.12,0,.24,0,.37s0,.25,0,.37,0,.37,0,.55S277.88,106.72,277.88,106.91Z"/></g><path class="cls-13" d="M272.7,93a20.63,20.63,0,0,0-2.3-1.73,21.08,21.08,0,0,0-11.59-3.44H146a21.28,21.28,0,0,0-21.28,21.28V344.77c-.75-.65-1.49-1.31-2.21-2V106.91a21.28,21.28,0,0,1,21.28-21.28H256.59c.37,0,.74,0,1.1,0h.24q.52,0,1.05.09l.54.07.45.07.34,0,.41.08.56.12a2.34,2.34,0,0,1,.38.09l.25.06.51.14a21.54,21.54,0,0,1,2.76,1l.34.16c.37.17.73.35,1.09.54A20.39,20.39,0,0,1,269.5,90l.37.28a.73.73,0,0,1,.09.08l.36.29.42.37.42.38.4.39.34.34.26.27.3.33Z"/><circle class="cls-14" cx="236.13" cy="240.84" r="13.56"/><circle class="cls-14" cx="164.05" cy="240.84" r="13.56"/></g></g></svg>