<svg xmlns="http://www.w3.org/2000/svg" viewBox="0 0 400 400"><defs><style>.cls-1{isolation:isolate;}.cls-2{fill:#c6ccc2;stroke-miterlimit:10;}.cls-2,.cls-5,.cls-6,.cls-7{stroke:#486284;}.cls-12,.cls-2,.cls-5,.cls-6,.cls-7{stroke-width:4.05px;}.cls-3{fill:#83d6d0;}.cls-4{fill:#486284;}.cls-12,.cls-5,.cls-8,.cls-9{fill:#f5e9e6;}.cls-11,.cls-12,.cls-13,.cls-16,.cls-5,.cls-6,.cls-7,.cls-8,.cls-9{stroke-linecap:round;stroke-linejoin:round;}.cls-6{fill:#6dbfb7;}.cls-13,.cls-16,.cls-7{fill:none;}.cls-11,.cls-12,.cls-13,.cls-16,.cls-8,.cls-9{stroke:#3d6189;}.cls-11,.cls-13,.cls-8{stroke-width:3.14px;}.cls-9{stroke-width:4.04px;}.cls-10,.cls-11{fill:#aad1cd;}.cls-14{mix-blend-mode:multiply;}.cls-15{fill:#fff;}.cls-16{stroke-width:2.66px;}</style></defs><title>Smartphone</title><g class="cls-1"><g id="Calque_1" data-name="Calque 1"><path class="cls-2" d="M315.09,260a114.79,114.79,0,0,1-36.81,84.37c-1.32,1.22-2.67,2.42-4,3.58a115,115,0,0,1-149.88-1.22c-.75-.65-1.49-1.32-2.22-2a115.08,115.08,0,0,1,0-169.48c.73-.68,1.47-1.34,2.22-2q4.28-3.74,8.9-7a115.12,115.12,0,0,1,133.9.3c2.44,1.74,4.79,3.59,7.08,5.52,1.38,1.16,2.73,2.36,4,3.58A114.79,114.79,0,0,1,315.09,260Z"/><path class="cls-3" d="M200,373.85A116.57,116.57,0,0,1,123,345c-.76-.66-1.51-1.34-2.26-2a2,2,0,0,1-.65-1.49V104.39A23.43,23.43,0,0,1,143.52,81H256.88c.41,0,.81,0,1.22,0l.32,0,1.09.09.62.08.47.07.44.08.34.06.68.14.39.1.29.07c.19,0,.38.1.56.15a25,25,0,0,1,3,1.09l.36.16c.43.21.82.4,1.21.61a22.67,22.67,0,0,1,3.18,2l.42.32.13.11a4.06,4.06,0,0,1,.39.33l.09.07.46.4.34.32.63.61a6.2,6.2,0,0,1,.49.52l.31.33.25.29.05.06c.11.12.22.25.32.38.25.3.5.62.74.94s.26.36.39.55a6.55,6.55,0,0,1,.37.55c.11.15.23.34.35.53s.25.41.38.64.37.67.54,1,.25.5.37.75l.22.49a23.34,23.34,0,0,1,.93,2.47c.06.19.1.35.15.51l0,.07c.05.18.09.35.14.52s.08.33.12.51.08.32.12.5.08.4.11.59.08.44.11.67c0,0,.09.63.11.79s.05.37.06.57a1.37,1.37,0,0,1,0,.19l0,.42c0,.11,0,.28,0,.45s0,.36,0,.56,0,.4,0,.6V341.11a2,2,0,0,1-.65,1.48c-1.29,1.2-2.67,2.43-4.11,3.65a116.19,116.19,0,0,1-44.65,23.5A117.51,117.51,0,0,1,200,373.85Z"/><path class="cls-4" d="M256.88,83c.37,0,.74,0,1.1,0h.25q.52,0,1,.09l.54.07.45.07.35.06.41.07.56.12.39.09.25.07.51.13a21.72,21.72,0,0,1,2.77,1l.35.16c.37.17.73.36,1.09.55a20.42,20.42,0,0,1,2.9,1.86l.38.3.09.07q.19.15.39.33l.08.06.45.4,0,0,.12.12.13.12.4.39.19.18c.15.14.28.29.42.44l.3.33.23.25,0,0c.11.12.21.24.31.37s.46.58.68.87.24.32.35.49.24.33.34.5.22.33.32.5.24.39.36.59.34.61.49.91.23.45.34.68.13.3.2.44c.32.74.6,1.49.85,2.27,0,.15.09.29.13.44a.37.37,0,0,1,0,.09c0,.16.09.32.13.48s.08.29.11.43.08.34.11.5.07.35.1.53.08.42.11.62l0,.26c0,.15,0,.29.05.44a5.42,5.42,0,0,1,.06.58s0,.09,0,.13,0,.25,0,.37,0,.26,0,.38,0,.37,0,.55,0,.37,0,.55V341.11c-1.32,1.23-2.67,2.42-4,3.59a115,115,0,0,1-149.88-1.23c-.75-.65-1.49-1.31-2.22-2V104.39A21.39,21.39,0,0,1,143.52,83H256.88m0-4H143.52a25.47,25.47,0,0,0-25.44,25.44V341.48a4.07,4.07,0,0,0,1.31,3c.78.72,1.56,1.42,2.32,2.07a119.3,119.3,0,0,0,109.71,25.16,118.15,118.15,0,0,0,45.42-23.9q2.21-1.87,4.19-3.72a4,4,0,0,0,1.29-3V104.39c0-.22,0-.43,0-.64s0-.43,0-.64,0-.33,0-.52l0-.32v-.09l0-.22c0-.2,0-.41-.06-.61s0-.34-.07-.52l0-.27v0l-.13-.75-.12-.61-.13-.59c0-.18-.09-.37-.14-.55s-.08-.3-.12-.45a2.17,2.17,0,0,0-.07-.24c0-.16-.09-.31-.13-.46a26.43,26.43,0,0,0-1-2.72l-.18-.4-.05-.1c-.13-.28-.27-.56-.4-.82s-.38-.72-.58-1.07l-.44-.74c-.12-.2-.25-.39-.38-.58l-.39-.59-.44-.61c-.24-.32-.51-.66-.79-1-.1-.13-.22-.27-.34-.4l-.05-.07h0l-.32-.36-.29-.31a8.08,8.08,0,0,0-.57-.6l-.23-.22-.43-.42-.05,0,0,0-.23-.22-.06-.06-.5-.43-.09-.07a5.65,5.65,0,0,0-.48-.4l-.13-.11-.44-.34a25.13,25.13,0,0,0-3.43-2.21q-.63-.33-1.26-.63l-.07,0-.15-.07-.2-.09a27.16,27.16,0,0,0-3.33-1.2l-.58-.16-.34-.08-.43-.1-.44-.1-.16,0-.15,0-.37-.07-.45-.07-.53-.08-.63-.08c-.4-.05-.8-.08-1.23-.11l-.34,0c-.4,0-.83,0-1.31,0Z"/><rect class="cls-5" x="133.25" y="108.08" width="133.9" height="230.98"/><circle class="cls-6" cx="200.2" cy="355.85" r="8.29"/><line class="cls-7" x1="183.62" y1="97.16" x2="216.79" y2="97.16"/><rect class="cls-8" x="159.37" y="168.7" width="10.88" height="15.37" rx="5.44" ry="5.44" transform="translate(341.19 11.58) rotate(90)"/><path class="cls-9" d="M152.59,164.9a39.64,39.64,0,0,1,23-2"/><circle class="cls-10" cx="167.25" cy="176.34" r="3.29"/><rect class="cls-11" x="230.95" y="168.76" width="10.92" height="15.37" rx="5.46" ry="5.46" transform="translate(59.96 412.85) rotate(-90)"/><path class="cls-12" d="M224.87,155.43a39.48,39.48,0,0,1,23.06.16"/><rect class="cls-8" x="231.09" y="168.7" width="10.88" height="15.37" rx="5.44" ry="5.44" transform="translate(412.92 -60.14) rotate(90)"/><circle class="cls-10" cx="238.97" cy="176.34" r="3.29"/><path class="cls-13" d="M187.46,208.81c0-4.92,5.7-8.9,12.74-8.9s12.74,4,12.74,8.9-5.7,8.9-12.74,8.9"/><g class="cls-14"><path class="cls-3" d="M169.64,367.79h60.72a116.1,116.1,0,0,1-60.72,0Z"/></g><g class="cls-14"><path class="cls-3" d="M278.28,104.39V341.11c-1.32,1.23-2.67,2.42-4,3.59V100.35a21.2,21.2,0,0,0-3.47-11.67q-.42-.66-.9-1.29a0,0,0,0,1,0,0l.38.3.09.07.36.3,0,0,.08.06.31.28.14.12,0,0,.12.12.13.12.4.39.19.18.15.16.27.28.3.33.23.25,0,0c.11.12.21.24.31.37s.46.58.68.87.24.32.35.49.24.33.34.5.22.33.32.5.24.39.36.59.34.61.49.91.23.45.34.68.13.3.2.44c.32.74.6,1.49.85,2.27,0,.15.09.29.13.44a.37.37,0,0,1,0,.09c0,.16.09.32.13.48s.08.29.11.43.08.34.11.5.07.35.1.53.08.42.11.62l0,.26c0,.15,0,.29.05.44a5.42,5.42,0,0,1,.06.58s0,.09,0,.13,0,.25,0,.37,0,.26,0,.38,0,.37,0,.55S278.28,104.21,278.28,104.39Z"/></g><path class="cls-15" d="M273.08,90.42a21,21,0,0,0-2.32-1.74,21.29,21.29,0,0,0-11.65-3.46H145.75a21.4,21.4,0,0,0-21.4,21.4V343.47c-.75-.65-1.49-1.31-2.22-2V104.39A21.39,21.39,0,0,1,143.52,83H256.88c.37,0,.74,0,1.1,0h.25q.52,0,1,.09l.54.07.45.07.35.06.41.07.56.12.39.09.25.07.51.13a21.72,21.72,0,0,1,2.77,1l.35.16c.37.17.73.36,1.09.55a21.18,21.18,0,0,1,2.91,1.87l.37.29.09.07.36.3.42.37.42.38.4.39c.12.11.23.23.34.34l.27.28.3.33Z"/><path class="cls-16" d="M174.93,270.57c22.94-9.88,40.44-11.71,50.5,0"/></g></g></svg>