<svg xmlns="http://www.w3.org/2000/svg" xmlns:xlink="http://www.w3.org/1999/xlink" viewBox="0 0 400 400"><defs><style>.cls-1,.cls-3{fill:#c6ccc2;}.cls-1,.cls-9{stroke:#486284;}.cls-1,.cls-18,.cls-9{stroke-miterlimit:10;}.cls-1,.cls-10,.cls-11,.cls-19,.cls-7,.cls-9{stroke-width:4.06px;}.cls-2{isolation:isolate;}.cls-4{clip-path:url(#clip-path);}.cls-5{fill:#dbba79;}.cls-10,.cls-12,.cls-14,.cls-16,.cls-17,.cls-18,.cls-19,.cls-5,.cls-7{stroke:#3d6189;}.cls-10,.cls-11,.cls-12,.cls-13,.cls-14,.cls-16,.cls-17,.cls-19,.cls-5,.cls-7{stroke-linecap:round;stroke-linejoin:round;}.cls-14,.cls-5{stroke-width:4.87px;}.cls-6{fill:#b7904b;}.cls-15,.cls-6,.cls-8{mix-blend-mode:darken;}.cls-16,.cls-7{fill:#f5e9e6;}.cls-8{fill:#efcbc5;}.cls-11,.cls-13,.cls-14,.cls-19,.cls-9{fill:none;}.cls-10,.cls-12,.cls-20{fill:#c42c51;}.cls-11,.cls-13{stroke:#fff;mix-blend-mode:color-dodge;}.cls-12,.cls-13{stroke-width:4.27px;}.cls-15{fill:#af274e;}.cls-16{stroke-width:3.69px;}.cls-17{fill:#aad1cd;stroke-width:3.16px;}.cls-18{fill:#40567c;stroke-width:0.41px;}</style><clipPath id="clip-path"><circle class="cls-1" cx="200" cy="260.38" r="115.62"/></clipPath></defs><title>user</title><g class="cls-2"><g id="Calque_1" data-name="Calque 1"><circle class="cls-3" cx="200" cy="260.38" r="115.62"/><g class="cls-4"><path class="cls-5" d="M127.87,377V354.25c0-22.55,26.24-40.83,58.62-40.83H219.2c32.38,0,58.62,18.28,58.62,40.83V377"/><path class="cls-6" d="M217.17,315.45l-33,.81c-21.79,0-38.61,8.13-49.17,22.76,10.75-9,25.5-17.68,43.58-17.68h32.72c32.37,0,58.62,18.28,58.62,40.83v16.89h5.89V356.28C276.49,333.55,250.21,315.28,217.17,315.45Z"/><rect class="cls-7" x="180.29" y="230.28" width="45.52" height="106.13" rx="22.76" ry="22.76"/><path class="cls-8" d="M225.78,251.94c0-.12,0-.24,0-.36l-.06-.73c0-.13,0-.27,0-.41s-.05-.44-.08-.66l-.06-.43-.12-.64c0-.14,0-.28-.08-.41l-.15-.66-.09-.38c-.08-.27-.15-.54-.24-.81,0-.09-.05-.19-.08-.28-.09-.29-.19-.59-.3-.88l-.15-.4c-.07-.19-.15-.38-.22-.56s-.13-.3-.2-.45-.14-.33-.22-.49-.14-.31-.22-.46l-.23-.45L223,242l-.23-.4-.29-.49-.2-.31c-.28-.43-.56-.86-.87-1.27v0c-.14-.19-.29-.37-.44-.56a1.84,1.84,0,0,0-.17-.22l-.45-.54-.19-.22-.48-.52-.18-.19c-.17-.18-.34-.36-.52-.53l-.13-.12a22,22,0,0,0-3.57-2.8l0,0-.78-.47,0,0a22.64,22.64,0,0,0-11.33-3h0A22.76,22.76,0,0,0,180.29,253v54.15a80.18,80.18,0,0,0,25.4,4.1h0a81,81,0,0,0,13.21-1.09v.59a22.76,22.76,0,0,1-22.76,22.76h0a22.49,22.49,0,0,1-5.16-.6,22.58,22.58,0,0,0,12.07,3.47h0a22.76,22.76,0,0,0,22.76-22.76V253C225.81,252.67,225.8,252.3,225.78,251.94Z"/></g><circle class="cls-9" cx="200" cy="260.38" r="115.62"/><circle class="cls-10" cx="128.88" cy="60.84" r="40.84"/><path class="cls-11" d="M134,26.47a34.33,34.33,0,0,1,10.11,3.15"/><path class="cls-11" d="M95,53.14a34.85,34.85,0,0,1,26.57-26.27"/><path class="cls-11" d="M97.09,74.86a34.06,34.06,0,0,1-2.63-9.27"/><rect class="cls-12" x="98.61" y="52.31" width="208.07" height="229.21" rx="101.42" ry="101.42"/><path class="cls-13" d="M144.12,76.49A94.6,94.6,0,0,1,200,58.4"/><path class="cls-13" d="M106.05,137.61a94.34,94.34,0,0,1,19.37-43.24"/><path class="cls-5" d="M152,64.25q-16.24,7.81-25.23,19a5.75,5.75,0,0,1-8-1.13l-1.15-1.54a5.74,5.74,0,0,1,1.13-8,71.78,71.78,0,0,1,25.24-19,5.75,5.75,0,0,1,8.05,1.14l1.15,1.53A5.75,5.75,0,0,1,152,64.25Z"/><path class="cls-14" d="M134.61,56c-10.19-12.84-20.13-10.89-26.07-6.21"/><path class="cls-15" d="M287.17,97.62a100.06,100.06,0,0,1,8.54,39.65v26.37A101.41,101.41,0,0,1,194.29,265.05h-5.24a101.33,101.33,0,0,1-84.32-45A101.45,101.45,0,0,0,198,281.51h5.24A101.41,101.41,0,0,0,304.65,180.1V153.73A100.4,100.4,0,0,0,287.17,97.62Z"/><rect class="cls-7" x="110.8" y="208.16" width="22.76" height="39.42" rx="11.38" ry="11.38"/><rect class="cls-7" x="271.73" y="208.16" width="22.76" height="39.42" rx="11.38" ry="11.38"/><path class="cls-8" d="M271.73,219.54V236.2a11.29,11.29,0,0,0,1.41,5.49,11.37,11.37,0,0,0,16.06-10.37V214.66a11.32,11.32,0,0,0-1.41-5.49,11.37,11.37,0,0,0-16.06,10.37Z"/><rect class="cls-16" x="122.18" y="94.37" width="160.93" height="208.68" rx="80.47" ry="80.47"/><line class="cls-13" x1="128.27" y1="222.59" x2="128.27" y2="174.84"/><rect class="cls-17" x="151.03" y="203.28" width="10.97" height="15.44" rx="5.49" ry="5.49"/><rect class="cls-17" x="243.28" y="203.28" width="10.97" height="15.44" rx="5.49" ry="5.49"/><ellipse class="cls-18" cx="202.64" cy="241.08" rx="11.79" ry="1.63"/><path class="cls-19" d="M169.62,260.54c3.53,8.06,17,14.07,33,14.07s29.65-6.08,33.09-14.21"/><path class="cls-20" d="M236.37,141.92c-34,23.94-74.47,35.21-119.88,36.57v-57.7l39.82-35.36,46.33-10.57,54.05,10.57,35.76,37,2,66.24C267.7,179.72,245.55,166.63,236.37,141.92Z"/><path class="cls-8" d="M236.37,148.42c-34,23.94-74.47,35.21-119.88,36.58V127.29l39.82-35.36,46.33-10.56,54.05,10.56,35.76,37,2,66.25C267.7,186.23,245.55,173.13,236.37,148.42Z"/><path class="cls-19" d="M294.49,188.65c-26.79-8.93-48.94-22-58.12-46.73-34,23.94-74.47,35.21-119.88,36.57"/><path class="cls-7" d="M144.12,194.75a39.76,39.76,0,0,1,23.17,0"/><path class="cls-7" d="M237.18,194.75a39.76,39.76,0,0,1,23.17,0"/><path class="cls-14" d="M244.5,138.26c11.06,19.18,27,32.13,53.24,40.23"/><path class="cls-14" d="M230.68,131.35c-30.45,22.64-69.3,34.11-114.32,37.39"/><path class="cls-8" d="M259.61,118A80.16,80.16,0,0,1,278,169.25V217a80.46,80.46,0,0,1-80.47,80.46h0a80.2,80.2,0,0,1-57-23.63,80.29,80.29,0,0,0,62,29.22h0a80.46,80.46,0,0,0,80.47-80.46V174.84A80.2,80.2,0,0,0,259.61,118Z"/></g></g></svg>